# xmcd
#
# Track frame offsets: 
#        150
#        19376
#        37091
#        54220
#        67619
#        85643
#        102010
#        123533
#        141961
#        155171
#        179088
#
# Disc length: 2595 seconds
#
# Revision: 1
# Processed by: cddbd v1.5.2PL0 Copyright (c) Steve Scherf et al.
# Submitted via: ExactAudioCopy v0.99pb5
#
DISCID=920a210b
DTITLE=22-20's - 22-20's
DYEAR=2004
DGENRE=Garage Rock
TTITLE0=Devil in Me
TTITLE1=Such a Fool
TTITLE2=Baby Brings Bad News
TTITLE3=22 Days
TTITLE4=Friends
TTITLE5=Why Don't You Do It for Me?
TTITLE6=Shoot Your Gun
TTITLE7=The Things That Lovers Do
TTITLE8=I'm the One
TTITLE9=Hold On
TTITLE10=Baby, You're Not in Love [US-exclusive bonus track]
EXTD=
EXTT0=
EXTT1=
EXTT2=
EXTT3=
EXTT4=
EXTT5=
EXTT6=
EXTT7=
EXTT8=
EXTT9=
EXTT10=
PLAYORDER=
